<svg version="1.2" baseProfile="tiny-ps" xmlns="http://www.w3.org/2000/svg" viewBox="0 0 1587 1466" width="162" height="150">
	<title>Facebook-f_Logo-White-Dark-Background-Logo</title>
	<style>
		tspan { white-space:pre }
		.shp0 { fill: #ffffff } 
	</style>
	<path id="Layer" class="shp0" d="M1481.33 745.67C1481.33 1086.4 1231.69 1368.83 905.33 1420.04L905.33 943L1064.4 943L1094.67 745.67L905.33 745.67L905.33 617.61C905.33 563.62 931.78 511 1016.58 511L1102.67 511L1102.67 343C1102.67 343 1024.54 329.67 949.85 329.67C793.92 329.67 692 424.17 692 595.27L692 745.67L518.67 745.67L518.67 943L692 943L692 1420.04C365.64 1368.83 116 1086.4 116 745.67C116 368.64 421.64 63 798.67 63C1175.69 63 1481.33 368.64 1481.33 745.67" />
</svg>